{"title":"Bridesmaids 2011 TS x264 Feel-Free","uid":6500780,"size":1304156904,"categoryP":"video","categoryS":"movies","magnet":"?xt=urn:btih:1f5dc0ac1bf6d622dcaec9c898b0c05d7b807b52&amp;dn=Bridesmaids+2011+TS+x264+Feel-Free&amp;tr=udp%3A%2F%2Ftracker.openbittorrent.com%3A80&amp;tr=udp%3A%2F%2Fopen.demonii.com%3A1337&amp;tr=udp%3A%2F%2Ftracker.coppersurfer.tk%3A6969&amp;tr=udp%3A%2F%2Fexodus.desync.com%3A6969","seeders":2,"leechers":0,"uploader":".BONE.","files":8,"time":1309247864,"description":"Genre:Comedy\nLanguage:English\n &lt;a href=&quot;\nhttp://www.imdb.com/title/tt1478338/&quot; rel=&quot;nofollow&quot; target=&quot;_NEW&quot;&gt;\nhttp://www.imdb.com/title/tt1478338/&lt;/a&gt;\n\nSource:VIDEOevichnik.v.Vegase.2011.D.TS/IMAGINE Thanks!\n\nFormat : MPEG-4\nFormat profile : Base Media\nCodec ID : isom\nFile size : 1.21 GiB\nDuration : 1h 57mn\nOverall bit rate : 1 477 Kbps\n\nVideo\nID : 1\nFormat : AVC\nFormat/Info : Advanced Video Codec\nFormat profile : &lt;a class=&quot;__cf_email__&quot; href=&quot;/cdn-cgi/l/email-protection&quot; data-cfemail=&quot;a9e1c0cec1e9e59d8798&quot;&gt;[email&amp;#160;protected]&lt;/a&gt;&lt;script cf-hash='f9e31' type=&quot;text/javascript&quot;&gt;\n/* &lt;![CDATA[ */!function(){try{var t=&quot;currentScript&quot;in document?document.currentScript:function(){for(var t=document.getElementsByTagName(&quot;script&quot;),e=t.length;e--;)if(t[e].getAttribute(&quot;cf-hash&quot;))return t[e]}();if(t&amp;&amp;t.previousSibling){var e,r,n,i,c=t.previousSibling,a=c.getAttribute(&quot;data-cfemail&quot;);if(a){for(e=&quot;&quot;,r=parseInt(a.substr(0,2),16),n=2;a.length-n;n+=2)i=parseInt(a.substr(n,2),16)^r,e+=String.fromCharCode(i);e=document.createTextNode(e),c.parentNode.replaceChild(e,c)}}}catch(u){}}();/* ]]&gt; */&lt;/script&gt;\nFormat settings, CABAC : Yes\nFormat settings, ReFrames : 3 frames\nCodec ID : avc1\nCodec ID/Info : Advanced Video Coding\nDuration : 1h 57mn\nBit rate mode : Variable\nBit rate : 1 253 Kbps\nMaximum bit rate : 3 941 Kbps\nWidth : 720 pixels\nHeight : 304 pixels\nDisplay aspect ratio : 2.35:1\nFrame rate mode : Constant\nFrame rate : 25.000 fps\nColor space : YUV\nChroma subsampling : 4:2:0\nBit depth : 8 bits\nScan type : Progressive\nBits/(Pixel*Frame) : 0.229\nStream size : 1.03 GiB (85%)\nWriting library : x264\n\nAudio\nID : 2\nFormat : AAC\nFormat/Info : Advanced Audio Codec\nFormat version : Version 4\nFormat profile : LC\nFormat settings, SBR : No\nCodec ID : 40\nDuration : 1h 57mn\nBit rate mode : Variable\nBit rate : 224 Kbps\nMaximum bit rate : 253 Kbps\nChannel(s) : 2 channels\nChannel positions : Front: L R\nSampling rate : 44.1 KHz\nStream size : 188 MiB (15%)\n\n\nPlot:\nPicked as her best friend's maid of honor, lovelorn and broke Annie looks to bluff her way through the expensive and bizarre rituals with an oddball group of bridesmaids.\n &lt;a href=&quot;\nhttp://leetleech.org/images/08220495473387190655.png&quot; rel=&quot;nofollow&quot; target=&quot;_NEW&quot;&gt;\nhttp://leetleech.org/images/08220495473387190655.png&lt;/a&gt;\n &lt;a href=&quot;\nhttp://leetleech.org/images/14613984562157479627.png&quot; rel=&quot;nofollow&quot; target=&quot;_NEW&quot;&gt;\nhttp://leetleech.org/images/14613984562157479627.png&lt;/a&gt;\n &lt;a href=&quot;\nhttp://leetleech.org/images/84599864101987288741.png&quot; rel=&quot;nofollow&quot; target=&quot;_NEW&quot;&gt;\nhttp://leetleech.org/images/84599864101987288741.png&lt;/a&gt;\n &lt;a href=&quot;\nhttp://leetleech.org/images/03614049270670369690.png&quot; rel=&quot;nofollow&quot; target=&quot;_NEW&quot;&gt;\nhttp://leetleech.org/images/03614049270670369690.png&lt;/a&gt;","torrent":{"xt":"urn:btih:1f5dc0ac1bf6d622dcaec9c898b0c05d7b807b52","amp;dn":"Bridesmaids+2011+TS+x264+Feel-Free","amp;tr":["udp%3A%2F%2Ftracker.openbittorrent.com%3A80","udp%3A%2F%2Fopen.demonii.com%3A1337","udp%3A%2F%2Ftracker.coppersurfer.tk%3A6969","udp%3A%2F%2Fexodus.desync.com%3A6969"],"infoHash":"1f5dc0ac1bf6d622dcaec9c898b0c05d7b807b52","infoHashBuffer":{"type":"Buffer","data":[31,93,192,172,27,246,214,34,220,174,201,200,152,176,192,93,123,128,123,82]},"announce":[],"urlList":[]}}